<svg xmlns="http://www.w3.org/2000/svg" xmlns:xlink="http://www.w3.org/1999/xlink" width="800" height="600" viewBox="0 0 800 600">
  <!-- Background gradients -->
  <defs>
    <linearGradient id="bg-gradient" x1="0%" y1="0%" x2="100%" y2="100%">
      <stop offset="0%" stop-color="#FF5733" stop-opacity="0.9"/>
      <stop offset="100%" stop-color="#FF8C33" stop-opacity="0.8"/>
    </linearGradient>
    <!-- Particles -->
    <filter id="glow" x="-50%" y="-50%" width="200%" height="200%">
      <feGaussianBlur stdDeviation="5" result="blur"/>
      <feComposite in="SourceGraphic" in2="blur" operator="over"/>
    </filter>
  </defs>
  
  <!-- Base background -->
  <rect width="100%" height="100%" fill="url(#bg-gradient)" />
  
  <!-- Parallax layer 1: Deep background elements -->
  <g class="parallax-layer" data-depth="0.1">
    <circle cx="150" cy="150" r="100" fill="#FF7033" opacity="0.3" />
    <circle cx="650" cy="450" r="120" fill="#FF6033" opacity="0.2" />
  </g>
  
  <!-- Parallax layer 2: Connection lines -->
  <g class="parallax-layer" data-depth="0.2">
    <path d="M100,300 C250,200 350,400 500,300 S650,350 700,250" stroke="white" stroke-width="2" fill="none" opacity="0.6" />
    <path d="M50,350 C200,300 300,450 450,350 S600,400 750,300" stroke="white" stroke-width="1.5" fill="none" opacity="0.5" />
    <path d="M150,400 C300,350 400,450 550,400 S650,450 700,350" stroke="white" stroke-width="1" fill="none" opacity="0.4" />
  </g>
  
  <!-- Parallax layer 3: API building blocks -->
  <g class="parallax-layer" data-depth="0.4">
    <!-- API blocks with integration points -->
    <g transform="translate(150, 200)">
      <rect x="0" y="0" width="120" height="70" rx="10" fill="#FFFFFF" opacity="0.9" />
      <text x="60" y="40" font-family="Arial, sans-serif" font-size="14" fill="#FF5733" text-anchor="middle">API Module 1</text>
      <circle cx="120" cy="35" r="8" fill="#FF5733" opacity="0.8" />
    </g>
    
    <g transform="translate(350, 250)">
      <rect x="0" y="0" width="120" height="70" rx="10" fill="#FFFFFF" opacity="0.9" />
      <text x="60" y="40" font-family="Arial, sans-serif" font-size="14" fill="#FF5733" text-anchor="middle">API Module 2</text>
      <circle cx="0" cy="35" r="8" fill="#FF5733" opacity="0.8" />
      <circle cx="120" cy="35" r="8" fill="#FF5733" opacity="0.8" />
    </g>
    
    <g transform="translate(550, 200)">
      <rect x="0" y="0" width="120" height="70" rx="10" fill="#FFFFFF" opacity="0.9" />
      <text x="60" y="40" font-family="Arial, sans-serif" font-size="14" fill="#FF5733" text-anchor="middle">API Module 3</text>
      <circle cx="0" cy="35" r="8" fill="#FF5733" opacity="0.8" />
    </g>
  </g>
  
  <!-- Parallax layer 4: Connection animation -->
  <g class="parallax-layer" data-depth="0.6">
    <!-- Animated dots representing data flow -->
    <circle class="data-point" cx="270" cy="235" r="5" fill="white" filter="url(#glow)" opacity="0.9" />
    <circle class="data-point" cx="470" cy="285" r="5" fill="white" filter="url(#glow)" opacity="0.9" />
    
    <!-- Connection lines -->
    <line x1="270" y1="235" x2="350" y2="285" stroke="white" stroke-width="2" stroke-dasharray="5,5" opacity="0.7" />
    <line x1="470" y1="285" x2="550" y2="235" stroke="white" stroke-width="2" stroke-dasharray="5,5" opacity="0.7" />
  </g>
  
  <!-- Parallax layer 5: Foreground elements -->
  <g class="parallax-layer" data-depth="0.8">
    <path d="M100,500 Q400,450 700,500" stroke="#FF8033" stroke-width="3" fill="none" opacity="0.7" />
    <text x="400" y="550" font-family="Arial, sans-serif" font-size="26" fill="white" text-anchor="middle" filter="url(#glow)">Rapid Integration API</text>
  </g>
  
  <!-- Animation definitions -->
  <style>
    .parallax-layer {
      transition: transform 0.1s ease-out;
    }
    
    @keyframes flow {
      0% { opacity: 0.3; transform: scale(0.8); }
      50% { opacity: 1; transform: scale(1.2); }
      100% { opacity: 0.3; transform: scale(0.8); }
    }
    
    .data-point {
      animation: flow 3s infinite;
    }
    
    .data-point:nth-child(2) {
      animation-delay: 1.5s;
    }
  </style>
</svg>